HIERARCHY
ROOT hip
{
	OFFSET 0.000000 0.000000 0.000000 
	CHANNELS 6 Xposition Yposition Zposition Xrotation Zrotation Yrotation
	JOINT abdomen
	{
		OFFSET 0.000000 3.402643 0.000000 
		CHANNELS 3 Xrotation Zrotation Yrotation
		JOINT chest
		{
			OFFSET 0.000000 8.438565 -0.680529 
			CHANNELS 3 Xrotation Zrotation Yrotation
			JOINT neck
			{
				OFFSET 0.000000 10.207942 -0.272212 
				CHANNELS 3 Xrotation Zrotation Yrotation
				JOINT head
				{
					OFFSET 0.000000 3.130431 0.000000 
					CHANNELS 3 Xrotation Zrotation Yrotation
					End Site
					{
						OFFSET 0.000000 3.130435 0.000000 
					}
				}
			}
			JOINT lCollar
			{
				OFFSET 3.470700 6.669187 -0.816635 
				CHANNELS 3 Yrotation Zrotation Xrotation
				JOINT lShldr
				{
					OFFSET 3.198488 0.000000 0.000000 
					CHANNELS 3 Zrotation Yrotation Xrotation
					JOINT lForeArm
					{
						OFFSET 10.139888 0.000000 0.000000 
						CHANNELS 3 Yrotation Zrotation Xrotation
						JOINT lHand
						{
							OFFSET 8.370511 0.000000 0.000000 
							CHANNELS 3 Zrotation Yrotation Xrotation
							End Site
							{
								OFFSET 4.083176 0.000000 0.000000 
							}
						}
					}
				}
			}
			JOINT rCollar
			{
				OFFSET -3.470700 6.669187 -0.816635 
				CHANNELS 3 Yrotation Zrotation Xrotation
				JOINT rShldr
				{
					OFFSET -3.198488 0.000000 0.000000 
					CHANNELS 3 Zrotation Yrotation Xrotation
					JOINT rForeArm
					{
						OFFSET -10.139888 0.000000 0.000000 
						CHANNELS 3 Yrotation Zrotation Xrotation
						JOINT rHand
						{
							OFFSET -8.370511 0.000000 0.000000 
							CHANNELS 3 Zrotation Yrotation Xrotation
							End Site
							{
								OFFSET -4.083176 0.000000 0.000000 
							}
						}
					}
				}
			}
		}
	}
	JOINT lThigh
	{
		OFFSET 5.308129 -1.633274 1.361059 
		CHANNELS 3 Xrotation Zrotation Yrotation
		JOINT lShin
		{
			OFFSET -2.041588 -20.007561 0.000000 
			CHANNELS 3 Xrotation Zrotation Yrotation
			JOINT lFoot
			{
				OFFSET 0.000000 -19.190928 -1.224953 
				CHANNELS 3 Xrotation Yrotation Zrotation
				End Site
				{
					OFFSET 0.000000 -2.449906 4.627600 
				}
			}
		}
	}
	JOINT rThigh
	{
		OFFSET -5.308129 -1.633274 1.361059 
		CHANNELS 3 Xrotation Zrotation Yrotation
		JOINT rShin
		{
			OFFSET 2.041588 -20.007561 0.000000 
			CHANNELS 3 Xrotation Zrotation Yrotation
			JOINT rFoot
			{
				OFFSET 0.000000 -19.190928 -1.224953 
				CHANNELS 3 Xrotation Yrotation Zrotation
				End Site
				{
					OFFSET 0.000000 -2.449906 4.627600 
				}
			}
		}
	}
}
MOTION
Frames: 8
Frame Time: 0.016667
-0.614497 44.175892 0.041459 -0.548168 -3.935370 -2.618720 -21.961599 1.271680 1.055860 18.007700 -0.497554 0.715508 13.534700 -0.055287 -2.635050 10.480500 4.625080 -1.046740 2.000000 -2.000000 0.000000 87.058098 167.554001 -6.406430 36.025799 -0.325419 0.080468 0.044724 -0.005414 -138.854996 -2.000000 2.000000 0.000000 91.947403 -18.349899 167.707993 -39.746498 0.319968 0.087420 -0.054554 0.002685 -134.391998 15.883687 2.499493 -7.098786 -20.069496 7.789644 -1.589415 2.199284 20.848986 -1.117755 5.321746 3.955889 -3.514899 3.552730 -4.191909 -0.143881 -14.702385 -6.536298 -1.849003 
-0.618116 44.177052 0.040505 -0.557943 -3.915830 -2.608470 -21.961399 1.266050 1.068660 17.997999 -0.487794 0.715156 13.490400 -0.200731 -2.586420 10.460400 4.586490 -1.033160 2.000000 -2.000000 0.000000 87.097198 167.524994 -6.299080 36.045300 -0.325391 0.080506 0.044733 -0.005660 -138.942993 -2.000000 2.000000 0.000000 91.937698 -18.379200 167.727005 -39.746498 0.319968 0.087420 -0.054551 0.002767 -134.421997 15.909885 2.462391 -7.077831 -20.121656 7.818723 -1.596358 2.251644 20.801182 -1.153836 5.328557 3.934734 -3.545771 3.557198 -4.187136 -0.124635 -14.705957 -6.528597 -1.844708 
-0.623006 44.174347 0.037268 -0.577534 -3.935350 -2.567880 -21.951799 1.275160 1.065140 18.017500 -0.487802 0.714990 13.575500 -0.067334 -2.664100 10.500000 4.624860 -1.064700 2.000000 -2.000000 0.000000 87.087402 167.514999 -6.279570 36.113701 -0.325295 0.080637 0.044733 -0.005660 -138.942993 -2.000000 2.000000 0.000000 91.918198 -18.389000 167.737000 -39.746498 0.319968 0.087420 -0.054553 0.002712 -134.401993 15.832828 2.530806 -7.060034 -19.960241 7.716594 -1.570565 2.191335 20.747675 -1.121772 5.354470 3.969933 -3.568393 3.541981 -4.188209 -0.143920 -14.700133 -6.541149 -1.851698 
-0.627896 44.171772 0.034033 -0.597125 -3.954860 -2.527270 -21.942101 1.296760 1.067120 18.027300 -0.487805 0.724673 13.651000 0.075609 -2.739690 10.539600 4.653530 -1.107060 2.000000 -2.000000 0.000000 87.087402 167.505005 -6.260060 36.172298 -0.325213 0.080750 0.044733 -0.005660 -138.942993 -2.000000 2.000000 0.000000 91.898598 -18.389000 167.746994 -39.746498 0.319968 0.087420 -0.054554 0.002685 -134.391998 15.861144 2.562951 -7.015484 -19.985804 7.704369 -1.569430 2.274364 20.679255 -1.118462 5.381457 4.005224 -3.600714 3.535959 -4.193286 -0.144437 -14.712079 -6.565133 -1.854127 
-0.630451 44.168941 0.033520 -0.606921 -3.964620 -2.467900 -21.932400 1.293380 1.058110 18.046801 -0.497569 0.715168 13.634600 0.101111 -2.782650 10.529900 4.663340 -1.126280 2.000000 -2.000000 0.000000 87.077599 167.514999 -6.240510 36.181999 -0.325199 0.080769 0.044737 -0.005769 -138.981995 -2.000000 2.000000 0.000000 91.898598 -18.330299 167.688004 -39.727001 0.319997 0.087384 -0.054563 0.002494 -134.324005 15.943388 2.550520 -6.992977 -20.165079 7.788516 -1.610820 2.420176 20.646088 -1.187969 5.398671 4.023990 -3.656219 3.542311 -4.187928 -0.143892 -14.723837 -6.532415 -1.859104 
-0.633009 44.166122 0.033008 -0.616725 -3.984140 -2.408420 -21.922600 1.293440 1.058240 18.076099 -0.507337 0.715337 13.607800 0.117937 -2.818860 10.529900 4.663340 -1.145810 2.000000 -2.000000 0.000000 87.077599 167.533997 -6.230700 36.181999 -0.325199 0.080769 0.044740 -0.005851 -139.011993 -2.000000 2.000000 0.000000 91.898499 -18.281300 167.630005 -39.707401 0.320027 0.087348 -0.054573 0.002275 -134.246002 15.899128 2.590008 -6.982446 -20.086988 7.742809 -1.579664 2.405583 20.585688 -1.188397 5.137193 4.074555 -3.756150 3.588708 -4.199289 -0.134369 -14.528786 -6.473715 -1.869451 
-0.637381 44.166245 0.033798 -0.626507 -3.974370 -2.339490 -21.912800 1.293490 1.058370 18.085800 -0.517097 0.715671 13.609000 0.145102 -2.831410 10.530000 4.673050 -1.144710 2.000000 -2.000000 0.000000 87.077599 167.544006 -6.230670 36.181999 -0.325199 0.080769 0.044738 -0.005797 -138.992004 -2.000000 2.000000 0.000000 91.917999 -18.251900 167.591003 -39.687901 0.320057 0.087312 -0.054581 0.002111 -134.186996 15.917655 2.598918 -6.982067 -20.129770 7.741501 -1.591357 2.482263 20.530905 -1.222672 5.409074 4.049474 -3.799572 3.555976 -4.188173 -0.124739 -14.725249 -6.479380 -1.841605 
-0.641753 44.166245 0.034591 -0.626507 -3.974370 -2.271130 -21.912800 1.284430 1.062010 18.085800 -0.526854 0.716092 13.609600 0.172922 -2.834240 10.530100 4.682750 -1.153370 2.000000 -2.000000 0.000000 87.077599 167.563995 -6.230630 36.172298 -0.325213 0.080750 0.044735 -0.005715 -138.962997 -2.000000 2.000000 0.000000 91.927696 -18.212799 167.552002 -39.678101 0.320072 0.087294 -0.054587 0.001975 -134.139008 15.897611 2.612609 -6.958514 -20.117416 7.719828 -1.606705 2.510060 20.478197 -1.236843 5.423269 4.055871 -3.855912 3.548591 -4.195413 -0.144237 -14.701760 -6.460854 -1.830547 
